# Blender v2.81 (sub 16) OBJ File: 'grass.blend'
# www.blender.org
mtllib grass.mtl
v 3.373955 -0.182088 -3.373957
v -3.373955 -0.182088 3.373957
v 3.373954 5.954201 -3.373957
v -3.373955 5.954201 3.373957
v 3.373956 -0.182088 3.373956
v -3.373956 -0.182088 -3.373956
v 3.373956 5.954201 3.373956
v -3.373955 5.954202 -3.373956
vt 0.000000 0.000000
vt 1.000000 0.000000
vt 1.000000 1.000000
vt 0.000000 1.000000
vt 0.000000 0.000000
vt 1.000000 0.000000
vt 1.000000 1.000000
vt 0.000000 1.000000
vn -0.7071 -0.0000 -0.7071
vn 0.7071 -0.0000 -0.7071
usemtl grass_floor
s off
f 1/1/1 2/2/1 4/3/1 3/4/1
f 5/5/2 6/6/2 8/7/2 7/8/2
